# xmcd
#
# Track frame offsets:
#	150
#	11226
#	29146
#	45380
#	62123
#	78324
#	92421
#	109900
#	122907
#	142592
#	157708
#	175333
#
# Disc length: 2548 seconds
#
# Revision: 1
# Processed by: cddbd v1.5.2PL0 Copyright (c) Steve Scherf et al.
# Submitted via: audiograbber 1.83.01
#
DISCID=9209f20c
DTITLE=Bradley Walker - Highway Of Dreams
DYEAR=2006
DGENRE=Bluegrass
TTITLE0=Life or Love
TTITLE1=When I'm Hurtin'
TTITLE2=Love's Tombstone
TTITLE3=Payin' your Dues
TTITLE4=If I Hadn't Reached for the Stars
TTITLE5=Price of Admission
TTITLE6=He Carried Her Memory
TTITLE7=A Little Change
TTITLE8=Lost at Sea
TTITLE9=Shoulda Took That Train
TTITLE10=I Never Go Around Mirrors
TTITLE11=We Know Where He Is
EXTD=
EXTT0=
EXTT1=
EXTT2=
EXTT3=
EXTT4=
EXTT5=
EXTT6=
EXTT7=
EXTT8=
EXTT9=
EXTT10=
EXTT11=
PLAYORDER=
